<svg class="svg-icon"
    style="width: 1em;height: 1em;vertical-align: middle;fill: currentColor;overflow: hidden;"
    viewBox="0 0 1024 1024" version="1.1" xmlns="http://www.w3.org/2000/svg">
    <path
        d="M182.886 337.92a26.624 26.624 0 0 0 19.661 7.885h1.331a27.75 27.75 0 0 0 19.15-7.885l138.034-138.342a26.42 26.42 0 0 0 7.578-18.842 26.112 26.112 0 0 0-7.885-18.74 26.522 26.522 0 0 0-36.659 0l-120.73 121.038-55.5-55.501a26.42 26.42 0 0 0-18.74-7.885 26.112 26.112 0 0 0-18.739 7.885 27.136 27.136 0 0 0-7.987 18.739 26.112 26.112 0 0 0 7.885 18.74z m319.693-51.2h385.229a33.382 33.382 0 1 0 0-66.867H502.579a32.973 32.973 0 0 0-23.552 9.625 32.358 32.358 0 0 0-10.24 23.552 33.69 33.69 0 0 0 33.792 33.69zM324.813 424.038L203.878 545.075l-55.5-55.5a26.42 26.42 0 0 0-18.74-8.295 25.395 25.395 0 0 0-18.739 7.885 27.136 27.136 0 0 0-7.885 18.739 26.112 26.112 0 0 0 7.885 18.74l72.5 72.498a27.34 27.34 0 0 0 20.48 7.885h0.921a27.443 27.443 0 0 0 19.251-7.885L361.984 461.62a27.136 27.136 0 0 0 7.885-18.739 26.112 26.112 0 0 0-7.885-18.74 27.546 27.546 0 0 0-37.171-0.102z m177.766 132.813h385.229a33.382 33.382 0 1 0 0-66.867H502.579a32.973 32.973 0 0 0-23.552 9.626 32.358 32.358 0 0 0-10.24 23.552 33.69 33.69 0 0 0 33.792 33.69zM324.301 686.08L203.264 807.117l-55.398-55.501a26.42 26.42 0 0 0-18.74-7.885 26.112 26.112 0 0 0-18.739 7.885 27.136 27.136 0 0 0-7.987 18.842 26.112 26.112 0 0 0 7.885 18.739l72.499 72.499a28.16 28.16 0 0 0 19.66 7.885h2.356a25.395 25.395 0 0 0 18.74-7.885l137.83-138.035a27.136 27.136 0 0 0 7.884-18.74 26.112 26.112 0 0 0-7.884-18.841 28.467 28.467 0 0 0-37.07 0z m592.691 90.522a34.816 34.816 0 0 0-29.286-16.59h-385.23a32.973 32.973 0 0 0-23.551 9.626 33.69 33.69 0 0 0 24.064 57.242h384.717a34.816 34.816 0 0 0 29.286-16.589 33.075 33.075 0 0 0 0-33.69z" />
</svg>